<?xml version="1.0" encoding="utf-8" ?>
<svg baseProfile="full" height="100%" version="1.1" width="100%" xmlns="http://www.w3.org/2000/svg" xmlns:ev="http://www.w3.org/2001/xml-events" xmlns:xlink="http://www.w3.org/1999/xlink"><defs /><g id="hlines" stroke="green"><line x1="3mm" x2="75mm" y1="3mm" y2="3mm" /><line x1="3mm" x2="75mm" y1="6mm" y2="6mm" /><line x1="3mm" x2="75mm" y1="9mm" y2="9mm" /><line x1="3mm" x2="75mm" y1="12mm" y2="12mm" /><line x1="3mm" x2="75mm" y1="15mm" y2="15mm" /><line x1="3mm" x2="75mm" y1="18mm" y2="18mm" /><line x1="3mm" x2="75mm" y1="21mm" y2="21mm" /><line x1="3mm" x2="75mm" y1="24mm" y2="24mm" /><line x1="3mm" x2="75mm" y1="27mm" y2="27mm" /><line x1="3mm" x2="75mm" y1="30mm" y2="30mm" /><line x1="3mm" x2="75mm" y1="33mm" y2="33mm" /><line x1="3mm" x2="75mm" y1="36mm" y2="36mm" /><line x1="3mm" x2="75mm" y1="39mm" y2="39mm" /><line x1="3mm" x2="75mm" y1="42mm" y2="42mm" /><line x1="3mm" x2="75mm" y1="45mm" y2="45mm" /><line x1="3mm" x2="75mm" y1="48mm" y2="48mm" /><line x1="3mm" x2="75mm" y1="51mm" y2="51mm" /><line x1="3mm" x2="75mm" y1="54mm" y2="54mm" /><line x1="3mm" x2="75mm" y1="57mm" y2="57mm" /><line x1="3mm" x2="75mm" y1="60mm" y2="60mm" /><line x1="3mm" x2="75mm" y1="63mm" y2="63mm" /><line x1="3mm" x2="75mm" y1="66mm" y2="66mm" /><line x1="3mm" x2="75mm" y1="69mm" y2="69mm" /><line x1="3mm" x2="75mm" y1="72mm" y2="72mm" /><line x1="3mm" x2="75mm" y1="75mm" y2="75mm" /></g><g id="vline" stroke="blue"><line x1="3mm" x2="3mm" y1="3mm" y2="75mm" /><line x1="6mm" x2="6mm" y1="3mm" y2="75mm" /><line x1="9mm" x2="9mm" y1="3mm" y2="75mm" /><line x1="12mm" x2="12mm" y1="3mm" y2="75mm" /><line x1="15mm" x2="15mm" y1="3mm" y2="75mm" /><line x1="18mm" x2="18mm" y1="3mm" y2="75mm" /><line x1="21mm" x2="21mm" y1="3mm" y2="75mm" /><line x1="24mm" x2="24mm" y1="3mm" y2="75mm" /><line x1="27mm" x2="27mm" y1="3mm" y2="75mm" /><line x1="30mm" x2="30mm" y1="3mm" y2="75mm" /><line x1="33mm" x2="33mm" y1="3mm" y2="75mm" /><line x1="36mm" x2="36mm" y1="3mm" y2="75mm" /><line x1="39mm" x2="39mm" y1="3mm" y2="75mm" /><line x1="42mm" x2="42mm" y1="3mm" y2="75mm" /><line x1="45mm" x2="45mm" y1="3mm" y2="75mm" /><line x1="48mm" x2="48mm" y1="3mm" y2="75mm" /><line x1="51mm" x2="51mm" y1="3mm" y2="75mm" /><line x1="54mm" x2="54mm" y1="3mm" y2="75mm" /><line x1="57mm" x2="57mm" y1="3mm" y2="75mm" /><line x1="60mm" x2="60mm" y1="3mm" y2="75mm" /><line x1="63mm" x2="63mm" y1="3mm" y2="75mm" /><line x1="66mm" x2="66mm" y1="3mm" y2="75mm" /><line x1="69mm" x2="69mm" y1="3mm" y2="75mm" /><line x1="72mm" x2="72mm" y1="3mm" y2="75mm" /><line x1="75mm" x2="75mm" y1="3mm" y2="75mm" /></g><g fill="red" id="shapes"><rect fill="rgb(3,1,1)" height="3mm" width="3mm" x="0mm" y="0mm" /><rect fill="rgb(180,90,60)" height="3mm" width="3mm" x="0mm" y="3mm" /><rect fill="rgb(95,47,31)" height="3mm" width="3mm" x="0mm" y="6mm" /><rect fill="rgb(32,16,10)" height="3mm" width="3mm" x="0mm" y="9mm" /><rect fill="rgb(40,20,13)" height="3mm" width="3mm" x="0mm" y="12mm" /><rect fill="rgb(53,26,17)" height="3mm" width="3mm" x="0mm" y="15mm" /><rect fill="rgb(45,22,15)" height="3mm" width="3mm" x="0mm" y="18mm" /><rect fill="rgb(246,123,82)" height="3mm" width="3mm" x="0mm" y="21mm" /><rect fill="rgb(101,50,33)" height="3mm" width="3mm" x="0mm" y="24mm" /><rect fill="rgb(161,80,53)" height="3mm" width="3mm" x="0mm" y="27mm" /><rect fill="rgb(8,4,2)" height="3mm" width="3mm" x="0mm" y="30mm" /><rect fill="rgb(200,100,66)" height="3mm" width="3mm" x="0mm" y="33mm" /><rect fill="rgb(19,9,6)" height="3mm" width="3mm" x="0mm" y="36mm" /><rect fill="rgb(25,12,8)" height="3mm" width="3mm" x="0mm" y="39mm" /><rect fill="rgb(117,58,39)" height="3mm" width="3mm" x="0mm" y="42mm" /><rect fill="rgb(112,56,37)" height="3mm" width="3mm" x="0mm" y="45mm" /><rect fill="rgb(94,47,31)" height="3mm" width="3mm" x="0mm" y="48mm" /><rect fill="rgb(207,103,69)" height="3mm" width="3mm" x="0mm" y="51mm" /><rect fill="rgb(192,96,64)" height="3mm" width="3mm" x="0mm" y="54mm" /><rect fill="rgb(13,6,4)" height="3mm" width="3mm" x="0mm" y="57mm" /><rect fill="rgb(228,114,76)" height="3mm" width="3mm" x="0mm" y="60mm" /><rect fill="rgb(27,13,9)" height="3mm" width="3mm" x="0mm" y="63mm" /><rect fill="rgb(185,92,61)" height="3mm" width="3mm" x="0mm" y="66mm" /><rect fill="rgb(189,94,63)" height="3mm" width="3mm" x="0mm" y="69mm" /><rect fill="rgb(103,51,34)" height="3mm" width="3mm" x="0mm" y="72mm" /><rect fill="rgb(118,59,39)" height="3mm" width="3mm" x="3mm" y="0mm" /><rect fill="rgb(94,47,31)" height="3mm" width="3mm" x="3mm" y="3mm" /><rect fill="rgb(157,78,52)" height="3mm" width="3mm" x="3mm" y="6mm" /><rect fill="rgb(197,98,65)" height="3mm" width="3mm" x="3mm" y="9mm" /><rect fill="rgb(232,116,77)" height="3mm" width="3mm" x="3mm" y="12mm" /><rect fill="rgb(7,3,2)" height="3mm" width="3mm" x="3mm" y="15mm" /><rect fill="rgb(217,108,72)" height="3mm" width="3mm" x="3mm" y="18mm" /><rect fill="rgb(149,74,49)" height="3mm" width="3mm" x="3mm" y="21mm" /><rect fill="rgb(219,109,73)" height="3mm" width="3mm" x="3mm" y="24mm" /><rect fill="rgb(82,41,27)" height="3mm" width="3mm" x="3mm" y="27mm" /><rect fill="rgb(121,60,40)" height="3mm" width="3mm" x="3mm" y="30mm" /><rect fill="rgb(161,80,53)" height="3mm" width="3mm" x="3mm" y="33mm" /><rect fill="rgb(213,106,71)" height="3mm" width="3mm" x="3mm" y="36mm" /><rect fill="rgb(64,32,21)" height="3mm" width="3mm" x="3mm" y="39mm" /><rect fill="rgb(132,66,44)" height="3mm" width="3mm" x="3mm" y="42mm" /><rect fill="rgb(180,90,60)" height="3mm" width="3mm" x="3mm" y="45mm" /><rect fill="rgb(68,34,22)" height="3mm" width="3mm" x="3mm" y="48mm" /><rect fill="rgb(132,66,44)" height="3mm" width="3mm" x="3mm" y="51mm" /><rect fill="rgb(209,104,69)" height="3mm" width="3mm" x="3mm" y="54mm" /><rect fill="rgb(27,13,9)" height="3mm" width="3mm" x="3mm" y="57mm" /><rect fill="rgb(80,40,26)" height="3mm" width="3mm" x="3mm" y="60mm" /><rect fill="rgb(180,90,60)" height="3mm" width="3mm" x="3mm" y="63mm" /><rect fill="rgb(243,121,81)" height="3mm" width="3mm" x="3mm" y="66mm" /><rect fill="rgb(58,29,19)" height="3mm" width="3mm" x="3mm" y="69mm" /><rect fill="rgb(18,9,6)" height="3mm" width="3mm" x="3mm" y="72mm" /><rect fill="rgb(119,59,39)" height="3mm" width="3mm" x="6mm" y="0mm" /><rect fill="rgb(152,76,50)" height="3mm" width="3mm" x="6mm" y="3mm" /><rect fill="rgb(24,12,8)" height="3mm" width="3mm" x="6mm" y="6mm" /><rect fill="rgb(154,77,51)" height="3mm" width="3mm" x="6mm" y="9mm" /><rect fill="rgb(126,63,42)" height="3mm" width="3mm" x="6mm" y="12mm" /><rect fill="rgb(48,24,16)" height="3mm" width="3mm" x="6mm" y="15mm" /><rect fill="rgb(20,10,6)" height="3mm" width="3mm" x="6mm" y="18mm" /><rect fill="rgb(213,106,71)" height="3mm" width="3mm" x="6mm" y="21mm" /><rect fill="rgb(131,65,43)" height="3mm" width="3mm" x="6mm" y="24mm" /><rect fill="rgb(167,83,55)" height="3mm" width="3mm" x="6mm" y="27mm" /><rect fill="rgb(9,4,3)" height="3mm" width="3mm" x="6mm" y="30mm" /><rect fill="rgb(121,60,40)" height="3mm" width="3mm" x="6mm" y="33mm" /><rect fill="rgb(223,111,74)" height="3mm" width="3mm" x="6mm" y="36mm" /><rect fill="rgb(178,89,59)" height="3mm" width="3mm" x="6mm" y="39mm" /><rect fill="rgb(145,72,48)" height="3mm" width="3mm" x="6mm" y="42mm" /><rect fill="rgb(242,121,80)" height="3mm" width="3mm" x="6mm" y="45mm" /><rect fill="rgb(51,25,17)" height="3mm" width="3mm" x="6mm" y="48mm" /><rect fill="rgb(143,71,47)" height="3mm" width="3mm" x="6mm" y="51mm" /><rect fill="rgb(200,100,66)" height="3mm" width="3mm" x="6mm" y="54mm" /><rect fill="rgb(112,56,37)" height="3mm" width="3mm" x="6mm" y="57mm" /><rect fill="rgb(221,110,73)" height="3mm" width="3mm" x="6mm" y="60mm" /><rect fill="rgb(4,2,1)" height="3mm" width="3mm" x="6mm" y="63mm" /><rect fill="rgb(57,28,19)" height="3mm" width="3mm" x="6mm" y="66mm" /><rect fill="rgb(176,88,58)" height="3mm" width="3mm" x="6mm" y="69mm" /><rect fill="rgb(50,25,16)" height="3mm" width="3mm" x="6mm" y="72mm" /><rect fill="rgb(39,19,13)" height="3mm" width="3mm" x="9mm" y="0mm" /><rect fill="rgb(10,5,3)" height="3mm" width="3mm" x="9mm" y="3mm" /><rect fill="rgb(189,94,63)" height="3mm" width="3mm" x="9mm" y="6mm" /><rect fill="rgb(200,100,66)" height="3mm" width="3mm" x="9mm" y="9mm" /><rect fill="rgb(202,101,67)" height="3mm" width="3mm" x="9mm" y="12mm" /><rect fill="rgb(5,2,1)" height="3mm" width="3mm" x="9mm" y="15mm" /><rect fill="rgb(130,65,43)" height="3mm" width="3mm" x="9mm" y="18mm" /><rect fill="rgb(29,14,9)" height="3mm" width="3mm" x="9mm" y="21mm" /><rect fill="rgb(52,26,17)" height="3mm" width="3mm" x="9mm" y="24mm" /><rect fill="rgb(129,64,43)" height="3mm" width="3mm" x="9mm" y="27mm" /><rect fill="rgb(223,111,74)" height="3mm" width="3mm" x="9mm" y="30mm" /><rect fill="rgb(24,12,8)" height="3mm" width="3mm" x="9mm" y="33mm" /><rect fill="rgb(244,122,81)" height="3mm" width="3mm" x="9mm" y="36mm" /><rect fill="rgb(237,118,79)" height="3mm" width="3mm" x="9mm" y="39mm" /><rect fill="rgb(15,7,5)" height="3mm" width="3mm" x="9mm" y="42mm" /><rect fill="rgb(64,32,21)" height="3mm" width="3mm" x="9mm" y="45mm" /><rect fill="rgb(127,63,42)" height="3mm" width="3mm" x="9mm" y="48mm" /><rect fill="rgb(200,100,66)" height="3mm" width="3mm" x="9mm" y="51mm" /><rect fill="rgb(78,39,26)" height="3mm" width="3mm" x="9mm" y="54mm" /><rect fill="rgb(213,106,71)" height="3mm" width="3mm" x="9mm" y="57mm" /><rect fill="rgb(37,18,12)" height="3mm" width="3mm" x="9mm" y="60mm" /><rect fill="rgb(132,66,44)" height="3mm" width="3mm" x="9mm" y="63mm" /><rect fill="rgb(58,29,19)" height="3mm" width="3mm" x="9mm" y="66mm" /><rect fill="rgb(167,83,55)" height="3mm" width="3mm" x="9mm" y="69mm" /><rect fill="rgb(11,5,3)" height="3mm" width="3mm" x="9mm" y="72mm" /><rect fill="rgb(9,4,3)" height="3mm" width="3mm" x="12mm" y="0mm" /><rect fill="rgb(64,32,21)" height="3mm" width="3mm" x="12mm" y="3mm" /><rect fill="rgb(213,106,71)" height="3mm" width="3mm" x="12mm" y="6mm" /><rect fill="rgb(133,66,44)" height="3mm" width="3mm" x="12mm" y="9mm" /><rect fill="rgb(253,126,84)" height="3mm" width="3mm" x="12mm" y="12mm" /><rect fill="rgb(43,21,14)" height="3mm" width="3mm" x="12mm" y="15mm" /><rect fill="rgb(170,85,56)" height="3mm" width="3mm" x="12mm" y="18mm" /><rect fill="rgb(47,23,15)" height="3mm" width="3mm" x="12mm" y="21mm" /><rect fill="rgb(132,66,44)" height="3mm" width="3mm" x="12mm" y="24mm" /><rect fill="rgb(162,81,54)" height="3mm" width="3mm" x="12mm" y="27mm" /><rect fill="rgb(231,115,77)" height="3mm" width="3mm" x="12mm" y="30mm" /><rect fill="rgb(9,4,3)" height="3mm" width="3mm" x="12mm" y="33mm" /><rect fill="rgb(243,121,81)" height="3mm" width="3mm" x="12mm" y="36mm" /><rect fill="rgb(184,92,61)" height="3mm" width="3mm" x="12mm" y="39mm" /><rect fill="rgb(35,17,11)" height="3mm" width="3mm" x="12mm" y="42mm" /><rect fill="rgb(102,51,34)" height="3mm" width="3mm" x="12mm" y="45mm" /><rect fill="rgb(152,76,50)" height="3mm" width="3mm" x="12mm" y="48mm" /><rect fill="rgb(70,35,23)" height="3mm" width="3mm" x="12mm" y="51mm" /><rect fill="rgb(96,48,32)" height="3mm" width="3mm" x="12mm" y="54mm" /><rect fill="rgb(36,18,12)" height="3mm" width="3mm" x="12mm" y="57mm" /><rect fill="rgb(131,65,43)" height="3mm" width="3mm" x="12mm" y="60mm" /><rect fill="rgb(131,65,43)" height="3mm" width="3mm" x="12mm" y="63mm" /><rect fill="rgb(40,20,13)" height="3mm" width="3mm" x="12mm" y="66mm" /><rect fill="rgb(86,43,28)" height="3mm" width="3mm" x="12mm" y="69mm" /><rect fill="rgb(195,97,65)" height="3mm" width="3mm" x="12mm" y="72mm" /><rect fill="rgb(252,126,84)" height="3mm" width="3mm" x="15mm" y="0mm" /><rect fill="rgb(133,66,44)" height="3mm" width="3mm" x="15mm" y="3mm" /><rect fill="rgb(129,64,43)" height="3mm" width="3mm" x="15mm" y="6mm" /><rect fill="rgb(243,121,81)" height="3mm" width="3mm" x="15mm" y="9mm" /><rect fill="rgb(48,24,16)" height="3mm" width="3mm" x="15mm" y="12mm" /><rect fill="rgb(196,98,65)" height="3mm" width="3mm" x="15mm" y="15mm" /><rect fill="rgb(183,91,61)" height="3mm" width="3mm" x="15mm" y="18mm" /><rect fill="rgb(20,10,6)" height="3mm" width="3mm" x="15mm" y="21mm" /><rect fill="rgb(79,39,26)" height="3mm" width="3mm" x="15mm" y="24mm" /><rect fill="rgb(43,21,14)" height="3mm" width="3mm" x="15mm" y="27mm" /><rect fill="rgb(195,97,65)" height="3mm" width="3mm" x="15mm" y="30mm" /><rect fill="rgb(157,78,52)" height="3mm" width="3mm" x="15mm" y="33mm" /><rect fill="rgb(194,97,64)" height="3mm" width="3mm" x="15mm" y="36mm" /><rect fill="rgb(181,90,60)" height="3mm" width="3mm" x="15mm" y="39mm" /><rect fill="rgb(138,69,46)" height="3mm" width="3mm" x="15mm" y="42mm" /><rect fill="rgb(126,63,42)" height="3mm" width="3mm" x="15mm" y="45mm" /><rect fill="rgb(140,70,46)" height="3mm" width="3mm" x="15mm" y="48mm" /><rect fill="rgb(231,115,77)" height="3mm" width="3mm" x="15mm" y="51mm" /><rect fill="rgb(231,115,77)" height="3mm" width="3mm" x="15mm" y="54mm" /><rect fill="rgb(159,79,53)" height="3mm" width="3mm" x="15mm" y="57mm" /><rect fill="rgb(84,42,28)" height="3mm" width="3mm" x="15mm" y="60mm" /><rect fill="rgb(27,13,9)" height="3mm" width="3mm" x="15mm" y="63mm" /><rect fill="rgb(114,57,38)" height="3mm" width="3mm" x="15mm" y="66mm" /><rect fill="rgb(1,0,0)" height="3mm" width="3mm" x="15mm" y="69mm" /><rect fill="rgb(91,45,30)" height="3mm" width="3mm" x="15mm" y="72mm" /><rect fill="rgb(211,105,70)" height="3mm" width="3mm" x="18mm" y="0mm" /><rect fill="rgb(214,107,71)" height="3mm" width="3mm" x="18mm" y="3mm" /><rect fill="rgb(68,34,22)" height="3mm" width="3mm" x="18mm" y="6mm" /><rect fill="rgb(20,10,6)" height="3mm" width="3mm" x="18mm" y="9mm" /><rect fill="rgb(9,4,3)" height="3mm" width="3mm" x="18mm" y="12mm" /><rect fill="rgb(113,56,37)" height="3mm" width="3mm" x="18mm" y="15mm" /><rect fill="rgb(50,25,16)" height="3mm" width="3mm" x="18mm" y="18mm" /><rect fill="rgb(153,76,51)" height="3mm" width="3mm" x="18mm" y="21mm" /><rect fill="rgb(104,52,34)" height="3mm" width="3mm" x="18mm" y="24mm" /><rect fill="rgb(167,83,55)" height="3mm" width="3mm" x="18mm" y="27mm" /><rect fill="rgb(128,64,42)" height="3mm" width="3mm" x="18mm" y="30mm" /><rect fill="rgb(212,106,70)" height="3mm" width="3mm" x="18mm" y="33mm" /><rect fill="rgb(152,76,50)" height="3mm" width="3mm" x="18mm" y="36mm" /><rect fill="rgb(221,110,73)" height="3mm" width="3mm" x="18mm" y="39mm" /><rect fill="rgb(21,10,7)" height="3mm" width="3mm" x="18mm" y="42mm" /><rect fill="rgb(154,77,51)" height="3mm" width="3mm" x="18mm" y="45mm" /><rect fill="rgb(145,72,48)" height="3mm" width="3mm" x="18mm" y="48mm" /><rect fill="rgb(8,4,2)" height="3mm" width="3mm" x="18mm" y="51mm" /><rect fill="rgb(100,50,33)" height="3mm" width="3mm" x="18mm" y="54mm" /><rect fill="rgb(150,75,50)" height="3mm" width="3mm" x="18mm" y="57mm" /><rect fill="rgb(0,0,0)" height="3mm" width="3mm" x="18mm" y="60mm" /><rect fill="rgb(188,94,62)" height="3mm" width="3mm" x="18mm" y="63mm" /><rect fill="rgb(176,88,58)" height="3mm" width="3mm" x="18mm" y="66mm" /><rect fill="rgb(226,113,75)" height="3mm" width="3mm" x="18mm" y="69mm" /><rect fill="rgb(63,31,21)" height="3mm" width="3mm" x="18mm" y="72mm" /><rect fill="rgb(60,30,20)" height="3mm" width="3mm" x="21mm" y="0mm" /><rect fill="rgb(46,23,15)" height="3mm" width="3mm" x="21mm" y="3mm" /><rect fill="rgb(37,18,12)" height="3mm" width="3mm" x="21mm" y="6mm" /><rect fill="rgb(90,45,30)" height="3mm" width="3mm" x="21mm" y="9mm" /><rect fill="rgb(246,123,82)" height="3mm" width="3mm" x="21mm" y="12mm" /><rect fill="rgb(113,56,37)" height="3mm" width="3mm" x="21mm" y="15mm" /><rect fill="rgb(197,98,65)" height="3mm" width="3mm" x="21mm" y="18mm" /><rect fill="rgb(100,50,33)" height="3mm" width="3mm" x="21mm" y="21mm" /><rect fill="rgb(35,17,11)" height="3mm" width="3mm" x="21mm" y="24mm" /><rect fill="rgb(181,90,60)" height="3mm" width="3mm" x="21mm" y="27mm" /><rect fill="rgb(108,54,36)" height="3mm" width="3mm" x="21mm" y="30mm" /><rect fill="rgb(177,88,59)" height="3mm" width="3mm" x="21mm" y="33mm" /><rect fill="rgb(195,97,65)" height="3mm" width="3mm" x="21mm" y="36mm" /><rect fill="rgb(92,46,30)" height="3mm" width="3mm" x="21mm" y="39mm" /><rect fill="rgb(208,104,69)" height="3mm" width="3mm" x="21mm" y="42mm" /><rect fill="rgb(9,4,3)" height="3mm" width="3mm" x="21mm" y="45mm" /><rect fill="rgb(25,12,8)" height="3mm" width="3mm" x="21mm" y="48mm" /><rect fill="rgb(44,22,14)" height="3mm" width="3mm" x="21mm" y="51mm" /><rect fill="rgb(140,70,46)" height="3mm" width="3mm" x="21mm" y="54mm" /><rect fill="rgb(75,37,25)" height="3mm" width="3mm" x="21mm" y="57mm" /><rect fill="rgb(249,124,83)" height="3mm" width="3mm" x="21mm" y="60mm" /><rect fill="rgb(46,23,15)" height="3mm" width="3mm" x="21mm" y="63mm" /><rect fill="rgb(221,110,73)" height="3mm" width="3mm" x="21mm" y="66mm" /><rect fill="rgb(77,38,25)" height="3mm" width="3mm" x="21mm" y="69mm" /><rect fill="rgb(57,28,19)" height="3mm" width="3mm" x="21mm" y="72mm" /><rect fill="rgb(24,12,8)" height="3mm" width="3mm" x="24mm" y="0mm" /><rect fill="rgb(56,28,18)" height="3mm" width="3mm" x="24mm" y="3mm" /><rect fill="rgb(176,88,58)" height="3mm" width="3mm" x="24mm" y="6mm" /><rect fill="rgb(208,104,69)" height="3mm" width="3mm" x="24mm" y="9mm" /><rect fill="rgb(107,53,35)" height="3mm" width="3mm" x="24mm" y="12mm" /><rect fill="rgb(80,40,26)" height="3mm" width="3mm" x="24mm" y="15mm" /><rect fill="rgb(31,15,10)" height="3mm" width="3mm" x="24mm" y="18mm" /><rect fill="rgb(235,117,78)" height="3mm" width="3mm" x="24mm" y="21mm" /><rect fill="rgb(15,7,5)" height="3mm" width="3mm" x="24mm" y="24mm" /><rect fill="rgb(82,41,27)" height="3mm" width="3mm" x="24mm" y="27mm" /><rect fill="rgb(226,113,75)" height="3mm" width="3mm" x="24mm" y="30mm" /><rect fill="rgb(204,102,68)" height="3mm" width="3mm" x="24mm" y="33mm" /><rect fill="rgb(43,21,14)" height="3mm" width="3mm" x="24mm" y="36mm" /><rect fill="rgb(170,85,56)" height="3mm" width="3mm" x="24mm" y="39mm" /><rect fill="rgb(242,121,80)" height="3mm" width="3mm" x="24mm" y="42mm" /><rect fill="rgb(107,53,35)" height="3mm" width="3mm" x="24mm" y="45mm" /><rect fill="rgb(11,5,3)" height="3mm" width="3mm" x="24mm" y="48mm" /><rect fill="rgb(103,51,34)" height="3mm" width="3mm" x="24mm" y="51mm" /><rect fill="rgb(78,39,26)" height="3mm" width="3mm" x="24mm" y="54mm" /><rect fill="rgb(244,122,81)" height="3mm" width="3mm" x="24mm" y="57mm" /><rect fill="rgb(178,89,59)" height="3mm" width="3mm" x="24mm" y="60mm" /><rect fill="rgb(49,24,16)" height="3mm" width="3mm" x="24mm" y="63mm" /><rect fill="rgb(74,37,24)" height="3mm" width="3mm" x="24mm" y="66mm" /><rect fill="rgb(107,53,35)" height="3mm" width="3mm" x="24mm" y="69mm" /><rect fill="rgb(115,57,38)" height="3mm" width="3mm" x="24mm" y="72mm" /><rect fill="rgb(237,118,79)" height="3mm" width="3mm" x="27mm" y="0mm" /><rect fill="rgb(133,66,44)" height="3mm" width="3mm" x="27mm" y="3mm" /><rect fill="rgb(127,63,42)" height="3mm" width="3mm" x="27mm" y="6mm" /><rect fill="rgb(72,36,24)" height="3mm" width="3mm" x="27mm" y="9mm" /><rect fill="rgb(35,17,11)" height="3mm" width="3mm" x="27mm" y="12mm" /><rect fill="rgb(172,86,57)" height="3mm" width="3mm" x="27mm" y="15mm" /><rect fill="rgb(243,121,81)" height="3mm" width="3mm" x="27mm" y="18mm" /><rect fill="rgb(113,56,37)" height="3mm" width="3mm" x="27mm" y="21mm" /><rect fill="rgb(246,123,82)" height="3mm" width="3mm" x="27mm" y="24mm" /><rect fill="rgb(22,11,7)" height="3mm" width="3mm" x="27mm" y="27mm" /><rect fill="rgb(115,57,38)" height="3mm" width="3mm" x="27mm" y="30mm" /><rect fill="rgb(187,93,62)" height="3mm" width="3mm" x="27mm" y="33mm" /><rect fill="rgb(148,74,49)" height="3mm" width="3mm" x="27mm" y="36mm" /><rect fill="rgb(253,126,84)" height="3mm" width="3mm" x="27mm" y="39mm" /><rect fill="rgb(34,17,11)" height="3mm" width="3mm" x="27mm" y="42mm" /><rect fill="rgb(233,116,77)" height="3mm" width="3mm" x="27mm" y="45mm" /><rect fill="rgb(233,116,77)" height="3mm" width="3mm" x="27mm" y="48mm" /><rect fill="rgb(168,84,56)" height="3mm" width="3mm" x="27mm" y="51mm" /><rect fill="rgb(241,120,80)" height="3mm" width="3mm" x="27mm" y="54mm" /><rect fill="rgb(226,113,75)" height="3mm" width="3mm" x="27mm" y="57mm" /><rect fill="rgb(164,82,54)" height="3mm" width="3mm" x="27mm" y="60mm" /><rect fill="rgb(171,85,57)" height="3mm" width="3mm" x="27mm" y="63mm" /><rect fill="rgb(203,101,67)" height="3mm" width="3mm" x="27mm" y="66mm" /><rect fill="rgb(17,8,5)" height="3mm" width="3mm" x="27mm" y="69mm" /><rect fill="rgb(62,31,20)" height="3mm" width="3mm" x="27mm" y="72mm" /><rect fill="rgb(32,16,10)" height="3mm" width="3mm" x="30mm" y="0mm" /><rect fill="rgb(196,98,65)" height="3mm" width="3mm" x="30mm" y="3mm" /><rect fill="rgb(132,66,44)" height="3mm" width="3mm" x="30mm" y="6mm" /><rect fill="rgb(50,25,16)" height="3mm" width="3mm" x="30mm" y="9mm" /><rect fill="rgb(227,113,75)" height="3mm" width="3mm" x="30mm" y="12mm" /><rect fill="rgb(70,35,23)" height="3mm" width="3mm" x="30mm" y="15mm" /><rect fill="rgb(201,100,67)" height="3mm" width="3mm" x="30mm" y="18mm" /><rect fill="rgb(90,45,30)" height="3mm" width="3mm" x="30mm" y="21mm" /><rect fill="rgb(235,117,78)" height="3mm" width="3mm" x="30mm" y="24mm" /><rect fill="rgb(240,120,80)" height="3mm" width="3mm" x="30mm" y="27mm" /><rect fill="rgb(207,103,69)" height="3mm" width="3mm" x="30mm" y="30mm" /><rect fill="rgb(13,6,4)" height="3mm" width="3mm" x="30mm" y="33mm" /><rect fill="rgb(42,21,14)" height="3mm" width="3mm" x="30mm" y="36mm" /><rect fill="rgb(146,73,48)" height="3mm" width="3mm" x="30mm" y="39mm" /><rect fill="rgb(46,23,15)" height="3mm" width="3mm" x="30mm" y="42mm" /><rect fill="rgb(132,66,44)" height="3mm" width="3mm" x="30mm" y="45mm" /><rect fill="rgb(223,111,74)" height="3mm" width="3mm" x="30mm" y="48mm" /><rect fill="rgb(201,100,67)" height="3mm" width="3mm" x="30mm" y="51mm" /><rect fill="rgb(175,87,58)" height="3mm" width="3mm" x="30mm" y="54mm" /><rect fill="rgb(179,89,59)" height="3mm" width="3mm" x="30mm" y="57mm" /><rect fill="rgb(201,100,67)" height="3mm" width="3mm" x="30mm" y="60mm" /><rect fill="rgb(4,2,1)" height="3mm" width="3mm" x="30mm" y="63mm" /><rect fill="rgb(3,1,1)" height="3mm" width="3mm" x="30mm" y="66mm" /><rect fill="rgb(58,29,19)" height="3mm" width="3mm" x="30mm" y="69mm" /><rect fill="rgb(54,27,18)" height="3mm" width="3mm" x="30mm" y="72mm" /><rect fill="rgb(102,51,34)" height="3mm" width="3mm" x="33mm" y="0mm" /><rect fill="rgb(125,62,41)" height="3mm" width="3mm" x="33mm" y="3mm" /><rect fill="rgb(176,88,58)" height="3mm" width="3mm" x="33mm" y="6mm" /><rect fill="rgb(27,13,9)" height="3mm" width="3mm" x="33mm" y="9mm" /><rect fill="rgb(101,50,33)" height="3mm" width="3mm" x="33mm" y="12mm" /><rect fill="rgb(165,82,55)" height="3mm" width="3mm" x="33mm" y="15mm" /><rect fill="rgb(50,25,16)" height="3mm" width="3mm" x="33mm" y="18mm" /><rect fill="rgb(193,96,64)" height="3mm" width="3mm" x="33mm" y="21mm" /><rect fill="rgb(99,49,33)" height="3mm" width="3mm" x="33mm" y="24mm" /><rect fill="rgb(8,4,2)" height="3mm" width="3mm" x="33mm" y="27mm" /><rect fill="rgb(100,50,33)" height="3mm" width="3mm" x="33mm" y="30mm" /><rect fill="rgb(136,68,45)" height="3mm" width="3mm" x="33mm" y="33mm" /><rect fill="rgb(26,13,8)" height="3mm" width="3mm" x="33mm" y="36mm" /><rect fill="rgb(62,31,20)" height="3mm" width="3mm" x="33mm" y="39mm" /><rect fill="rgb(94,47,31)" height="3mm" width="3mm" x="33mm" y="42mm" /><rect fill="rgb(163,81,54)" height="3mm" width="3mm" x="33mm" y="45mm" /><rect fill="rgb(110,55,36)" height="3mm" width="3mm" x="33mm" y="48mm" /><rect fill="rgb(196,98,65)" height="3mm" width="3mm" x="33mm" y="51mm" /><rect fill="rgb(1,0,0)" height="3mm" width="3mm" x="33mm" y="54mm" /><rect fill="rgb(40,20,13)" height="3mm" width="3mm" x="33mm" y="57mm" /><rect fill="rgb(45,22,15)" height="3mm" width="3mm" x="33mm" y="60mm" /><rect fill="rgb(60,30,20)" height="3mm" width="3mm" x="33mm" y="63mm" /><rect fill="rgb(28,14,9)" height="3mm" width="3mm" x="33mm" y="66mm" /><rect fill="rgb(139,69,46)" height="3mm" width="3mm" x="33mm" y="69mm" /><rect fill="rgb(9,4,3)" height="3mm" width="3mm" x="33mm" y="72mm" /><rect fill="rgb(61,30,20)" height="3mm" width="3mm" x="36mm" y="0mm" /><rect fill="rgb(38,19,12)" height="3mm" width="3mm" x="36mm" y="3mm" /><rect fill="rgb(237,118,79)" height="3mm" width="3mm" x="36mm" y="6mm" /><rect fill="rgb(187,93,62)" height="3mm" width="3mm" x="36mm" y="9mm" /><rect fill="rgb(145,72,48)" height="3mm" width="3mm" x="36mm" y="12mm" /><rect fill="rgb(93,46,31)" height="3mm" width="3mm" x="36mm" y="15mm" /><rect fill="rgb(123,61,41)" height="3mm" width="3mm" x="36mm" y="18mm" /><rect fill="rgb(138,69,46)" height="3mm" width="3mm" x="36mm" y="21mm" /><rect fill="rgb(182,91,60)" height="3mm" width="3mm" x="36mm" y="24mm" /><rect fill="rgb(100,50,33)" height="3mm" width="3mm" x="36mm" y="27mm" /><rect fill="rgb(61,30,20)" height="3mm" width="3mm" x="36mm" y="30mm" /><rect fill="rgb(59,29,19)" height="3mm" width="3mm" x="36mm" y="33mm" /><rect fill="rgb(33,16,11)" height="3mm" width="3mm" x="36mm" y="36mm" /><rect fill="rgb(127,63,42)" height="3mm" width="3mm" x="36mm" y="39mm" /><rect fill="rgb(78,39,26)" height="3mm" width="3mm" x="36mm" y="42mm" /><rect fill="rgb(233,116,77)" height="3mm" width="3mm" x="36mm" y="45mm" /><rect fill="rgb(210,105,70)" height="3mm" width="3mm" x="36mm" y="48mm" /><rect fill="rgb(120,60,40)" height="3mm" width="3mm" x="36mm" y="51mm" /><rect fill="rgb(132,66,44)" height="3mm" width="3mm" x="36mm" y="54mm" /><rect fill="rgb(224,112,74)" height="3mm" width="3mm" x="36mm" y="57mm" /><rect fill="rgb(187,93,62)" height="3mm" width="3mm" x="36mm" y="60mm" /><rect fill="rgb(242,121,80)" height="3mm" width="3mm" x="36mm" y="63mm" /><rect fill="rgb(245,122,81)" height="3mm" width="3mm" x="36mm" y="66mm" /><rect fill="rgb(244,122,81)" height="3mm" width="3mm" x="36mm" y="69mm" /><rect fill="rgb(160,80,53)" height="3mm" width="3mm" x="36mm" y="72mm" /><rect fill="rgb(250,125,83)" height="3mm" width="3mm" x="39mm" y="0mm" /><rect fill="rgb(111,55,37)" height="3mm" width="3mm" x="39mm" y="3mm" /><rect fill="rgb(38,19,12)" height="3mm" width="3mm" x="39mm" y="6mm" /><rect fill="rgb(175,87,58)" height="3mm" width="3mm" x="39mm" y="9mm" /><rect fill="rgb(23,11,7)" height="3mm" width="3mm" x="39mm" y="12mm" /><rect fill="rgb(195,97,65)" height="3mm" width="3mm" x="39mm" y="15mm" /><rect fill="rgb(170,85,56)" height="3mm" width="3mm" x="39mm" y="18mm" /><rect fill="rgb(169,84,56)" height="3mm" width="3mm" x="39mm" y="21mm" /><rect fill="rgb(100,50,33)" height="3mm" width="3mm" x="39mm" y="24mm" /><rect fill="rgb(110,55,36)" height="3mm" width="3mm" x="39mm" y="27mm" /><rect fill="rgb(239,119,79)" height="3mm" width="3mm" x="39mm" y="30mm" /><rect fill="rgb(31,15,10)" height="3mm" width="3mm" x="39mm" y="33mm" /><rect fill="rgb(8,4,2)" height="3mm" width="3mm" x="39mm" y="36mm" /><rect fill="rgb(161,80,53)" height="3mm" width="3mm" x="39mm" y="39mm" /><rect fill="rgb(246,123,82)" height="3mm" width="3mm" x="39mm" y="42mm" /><rect fill="rgb(222,111,74)" height="3mm" width="3mm" x="39mm" y="45mm" /><rect fill="rgb(186,93,62)" height="3mm" width="3mm" x="39mm" y="48mm" /><rect fill="rgb(236,118,78)" height="3mm" width="3mm" x="39mm" y="51mm" /><rect fill="rgb(70,35,23)" height="3mm" width="3mm" x="39mm" y="54mm" /><rect fill="rgb(9,4,3)" height="3mm" width="3mm" x="39mm" y="57mm" /><rect fill="rgb(75,37,25)" height="3mm" width="3mm" x="39mm" y="60mm" /><rect fill="rgb(113,56,37)" height="3mm" width="3mm" x="39mm" y="63mm" /><rect fill="rgb(33,16,11)" height="3mm" width="3mm" x="39mm" y="66mm" /><rect fill="rgb(200,100,66)" height="3mm" width="3mm" x="39mm" y="69mm" /><rect fill="rgb(76,38,25)" height="3mm" width="3mm" x="39mm" y="72mm" /><rect fill="rgb(42,21,14)" height="3mm" width="3mm" x="42mm" y="0mm" /><rect fill="rgb(226,113,75)" height="3mm" width="3mm" x="42mm" y="3mm" /><rect fill="rgb(184,92,61)" height="3mm" width="3mm" x="42mm" y="6mm" /><rect fill="rgb(179,89,59)" height="3mm" width="3mm" x="42mm" y="9mm" /><rect fill="rgb(117,58,39)" height="3mm" width="3mm" x="42mm" y="12mm" /><rect fill="rgb(100,50,33)" height="3mm" width="3mm" x="42mm" y="15mm" /><rect fill="rgb(31,15,10)" height="3mm" width="3mm" x="42mm" y="18mm" /><rect fill="rgb(125,62,41)" height="3mm" width="3mm" x="42mm" y="21mm" /><rect fill="rgb(35,17,11)" height="3mm" width="3mm" x="42mm" y="24mm" /><rect fill="rgb(216,108,72)" height="3mm" width="3mm" x="42mm" y="27mm" /><rect fill="rgb(182,91,60)" height="3mm" width="3mm" x="42mm" y="30mm" /><rect fill="rgb(251,125,83)" height="3mm" width="3mm" x="42mm" y="33mm" /><rect fill="rgb(150,75,50)" height="3mm" width="3mm" x="42mm" y="36mm" /><rect fill="rgb(224,112,74)" height="3mm" width="3mm" x="42mm" y="39mm" /><rect fill="rgb(161,80,53)" height="3mm" width="3mm" x="42mm" y="42mm" /><rect fill="rgb(39,19,13)" height="3mm" width="3mm" x="42mm" y="45mm" /><rect fill="rgb(102,51,34)" height="3mm" width="3mm" x="42mm" y="48mm" /><rect fill="rgb(2,1,0)" height="3mm" width="3mm" x="42mm" y="51mm" /><rect fill="rgb(114,57,38)" height="3mm" width="3mm" x="42mm" y="54mm" /><rect fill="rgb(96,48,32)" height="3mm" width="3mm" x="42mm" y="57mm" /><rect fill="rgb(127,63,42)" height="3mm" width="3mm" x="42mm" y="60mm" /><rect fill="rgb(81,40,27)" height="3mm" width="3mm" x="42mm" y="63mm" /><rect fill="rgb(203,101,67)" height="3mm" width="3mm" x="42mm" y="66mm" /><rect fill="rgb(75,37,25)" height="3mm" width="3mm" x="42mm" y="69mm" /><rect fill="rgb(83,41,27)" height="3mm" width="3mm" x="42mm" y="72mm" /><rect fill="rgb(247,123,82)" height="3mm" width="3mm" x="45mm" y="0mm" /><rect fill="rgb(12,6,4)" height="3mm" width="3mm" x="45mm" y="3mm" /><rect fill="rgb(59,29,19)" height="3mm" width="3mm" x="45mm" y="6mm" /><rect fill="rgb(247,123,82)" height="3mm" width="3mm" x="45mm" y="9mm" /><rect fill="rgb(4,2,1)" height="3mm" width="3mm" x="45mm" y="12mm" /><rect fill="rgb(22,11,7)" height="3mm" width="3mm" x="45mm" y="15mm" /><rect fill="rgb(56,28,18)" height="3mm" width="3mm" x="45mm" y="18mm" /><rect fill="rgb(156,78,52)" height="3mm" width="3mm" x="45mm" y="21mm" /><rect fill="rgb(226,113,75)" height="3mm" width="3mm" x="45mm" y="24mm" /><rect fill="rgb(122,61,40)" height="3mm" width="3mm" x="45mm" y="27mm" /><rect fill="rgb(73,36,24)" height="3mm" width="3mm" x="45mm" y="30mm" /><rect fill="rgb(192,96,64)" height="3mm" width="3mm" x="45mm" y="33mm" /><rect fill="rgb(40,20,13)" height="3mm" width="3mm" x="45mm" y="36mm" /><rect fill="rgb(189,94,63)" height="3mm" width="3mm" x="45mm" y="39mm" /><rect fill="rgb(162,81,54)" height="3mm" width="3mm" x="45mm" y="42mm" /><rect fill="rgb(64,32,21)" height="3mm" width="3mm" x="45mm" y="45mm" /><rect fill="rgb(64,32,21)" height="3mm" width="3mm" x="45mm" y="48mm" /><rect fill="rgb(41,20,13)" height="3mm" width="3mm" x="45mm" y="51mm" /><rect fill="rgb(221,110,73)" height="3mm" width="3mm" x="45mm" y="54mm" /><rect fill="rgb(4,2,1)" height="3mm" width="3mm" x="45mm" y="57mm" /><rect fill="rgb(84,42,28)" height="3mm" width="3mm" x="45mm" y="60mm" /><rect fill="rgb(108,54,36)" height="3mm" width="3mm" x="45mm" y="63mm" /><rect fill="rgb(34,17,11)" height="3mm" width="3mm" x="45mm" y="66mm" /><rect fill="rgb(123,61,41)" height="3mm" width="3mm" x="45mm" y="69mm" /><rect fill="rgb(118,59,39)" height="3mm" width="3mm" x="45mm" y="72mm" /><rect fill="rgb(144,72,48)" height="3mm" width="3mm" x="48mm" y="0mm" /><rect fill="rgb(17,8,5)" height="3mm" width="3mm" x="48mm" y="3mm" /><rect fill="rgb(99,49,33)" height="3mm" width="3mm" x="48mm" y="6mm" /><rect fill="rgb(64,32,21)" height="3mm" width="3mm" x="48mm" y="9mm" /><rect fill="rgb(182,91,60)" height="3mm" width="3mm" x="48mm" y="12mm" /><rect fill="rgb(98,49,32)" height="3mm" width="3mm" x="48mm" y="15mm" /><rect fill="rgb(3,1,1)" height="3mm" width="3mm" x="48mm" y="18mm" /><rect fill="rgb(100,50,33)" height="3mm" width="3mm" x="48mm" y="21mm" /><rect fill="rgb(236,118,78)" height="3mm" width="3mm" x="48mm" y="24mm" /><rect fill="rgb(189,94,63)" height="3mm" width="3mm" x="48mm" y="27mm" /><rect fill="rgb(138,69,46)" height="3mm" width="3mm" x="48mm" y="30mm" /><rect fill="rgb(156,78,52)" height="3mm" width="3mm" x="48mm" y="33mm" /><rect fill="rgb(64,32,21)" height="3mm" width="3mm" x="48mm" y="36mm" /><rect fill="rgb(39,19,13)" height="3mm" width="3mm" x="48mm" y="39mm" /><rect fill="rgb(88,44,29)" height="3mm" width="3mm" x="48mm" y="42mm" /><rect fill="rgb(105,52,35)" height="3mm" width="3mm" x="48mm" y="45mm" /><rect fill="rgb(102,51,34)" height="3mm" width="3mm" x="48mm" y="48mm" /><rect fill="rgb(253,126,84)" height="3mm" width="3mm" x="48mm" y="51mm" /><rect fill="rgb(114,57,38)" height="3mm" width="3mm" x="48mm" y="54mm" /><rect fill="rgb(44,22,14)" height="3mm" width="3mm" x="48mm" y="57mm" /><rect fill="rgb(211,105,70)" height="3mm" width="3mm" x="48mm" y="60mm" /><rect fill="rgb(253,126,84)" height="3mm" width="3mm" x="48mm" y="63mm" /><rect fill="rgb(59,29,19)" height="3mm" width="3mm" x="48mm" y="66mm" /><rect fill="rgb(160,80,53)" height="3mm" width="3mm" x="48mm" y="69mm" /><rect fill="rgb(183,91,61)" height="3mm" width="3mm" x="48mm" y="72mm" /><rect fill="rgb(82,41,27)" height="3mm" width="3mm" x="51mm" y="0mm" /><rect fill="rgb(60,30,20)" height="3mm" width="3mm" x="51mm" y="3mm" /><rect fill="rgb(26,13,8)" height="3mm" width="3mm" x="51mm" y="6mm" /><rect fill="rgb(7,3,2)" height="3mm" width="3mm" x="51mm" y="9mm" /><rect fill="rgb(30,15,10)" height="3mm" width="3mm" x="51mm" y="12mm" /><rect fill="rgb(198,99,66)" height="3mm" width="3mm" x="51mm" y="15mm" /><rect fill="rgb(61,30,20)" height="3mm" width="3mm" x="51mm" y="18mm" /><rect fill="rgb(148,74,49)" height="3mm" width="3mm" x="51mm" y="21mm" /><rect fill="rgb(223,111,74)" height="3mm" width="3mm" x="51mm" y="24mm" /><rect fill="rgb(38,19,12)" height="3mm" width="3mm" x="51mm" y="27mm" /><rect fill="rgb(24,12,8)" height="3mm" width="3mm" x="51mm" y="30mm" /><rect fill="rgb(71,35,23)" height="3mm" width="3mm" x="51mm" y="33mm" /><rect fill="rgb(42,21,14)" height="3mm" width="3mm" x="51mm" y="36mm" /><rect fill="rgb(195,97,65)" height="3mm" width="3mm" x="51mm" y="39mm" /><rect fill="rgb(240,120,80)" height="3mm" width="3mm" x="51mm" y="42mm" /><rect fill="rgb(72,36,24)" height="3mm" width="3mm" x="51mm" y="45mm" /><rect fill="rgb(133,66,44)" height="3mm" width="3mm" x="51mm" y="48mm" /><rect fill="rgb(205,102,68)" height="3mm" width="3mm" x="51mm" y="51mm" /><rect fill="rgb(41,20,13)" height="3mm" width="3mm" x="51mm" y="54mm" /><rect fill="rgb(100,50,33)" height="3mm" width="3mm" x="51mm" y="57mm" /><rect fill="rgb(10,5,3)" height="3mm" width="3mm" x="51mm" y="60mm" /><rect fill="rgb(226,113,75)" height="3mm" width="3mm" x="51mm" y="63mm" /><rect fill="rgb(7,3,2)" height="3mm" width="3mm" x="51mm" y="66mm" /><rect fill="rgb(195,97,65)" height="3mm" width="3mm" x="51mm" y="69mm" /><rect fill="rgb(174,87,58)" height="3mm" width="3mm" x="51mm" y="72mm" /><rect fill="rgb(68,34,22)" height="3mm" width="3mm" x="54mm" y="0mm" /><rect fill="rgb(165,82,55)" height="3mm" width="3mm" x="54mm" y="3mm" /><rect fill="rgb(86,43,28)" height="3mm" width="3mm" x="54mm" y="6mm" /><rect fill="rgb(65,32,21)" height="3mm" width="3mm" x="54mm" y="9mm" /><rect fill="rgb(136,68,45)" height="3mm" width="3mm" x="54mm" y="12mm" /><rect fill="rgb(197,98,65)" height="3mm" width="3mm" x="54mm" y="15mm" /><rect fill="rgb(19,9,6)" height="3mm" width="3mm" x="54mm" y="18mm" /><rect fill="rgb(32,16,10)" height="3mm" width="3mm" x="54mm" y="21mm" /><rect fill="rgb(244,122,81)" height="3mm" width="3mm" x="54mm" y="24mm" /><rect fill="rgb(7,3,2)" height="3mm" width="3mm" x="54mm" y="27mm" /><rect fill="rgb(209,104,69)" height="3mm" width="3mm" x="54mm" y="30mm" /><rect fill="rgb(175,87,58)" height="3mm" width="3mm" x="54mm" y="33mm" /><rect fill="rgb(142,71,47)" height="3mm" width="3mm" x="54mm" y="36mm" /><rect fill="rgb(125,62,41)" height="3mm" width="3mm" x="54mm" y="39mm" /><rect fill="rgb(241,120,80)" height="3mm" width="3mm" x="54mm" y="42mm" /><rect fill="rgb(104,52,34)" height="3mm" width="3mm" x="54mm" y="45mm" /><rect fill="rgb(168,84,56)" height="3mm" width="3mm" x="54mm" y="48mm" /><rect fill="rgb(117,58,39)" height="3mm" width="3mm" x="54mm" y="51mm" /><rect fill="rgb(180,90,60)" height="3mm" width="3mm" x="54mm" y="54mm" /><rect fill="rgb(250,125,83)" height="3mm" width="3mm" x="54mm" y="57mm" /><rect fill="rgb(86,43,28)" height="3mm" width="3mm" x="54mm" y="60mm" /><rect fill="rgb(126,63,42)" height="3mm" width="3mm" x="54mm" y="63mm" /><rect fill="rgb(33,16,11)" height="3mm" width="3mm" x="54mm" y="66mm" /><rect fill="rgb(210,105,70)" height="3mm" width="3mm" x="54mm" y="69mm" /><rect fill="rgb(80,40,26)" height="3mm" width="3mm" x="54mm" y="72mm" /><rect fill="rgb(104,52,34)" height="3mm" width="3mm" x="57mm" y="0mm" /><rect fill="rgb(37,18,12)" height="3mm" width="3mm" x="57mm" y="3mm" /><rect fill="rgb(209,104,69)" height="3mm" width="3mm" x="57mm" y="6mm" /><rect fill="rgb(204,102,68)" height="3mm" width="3mm" x="57mm" y="9mm" /><rect fill="rgb(191,95,63)" height="3mm" width="3mm" x="57mm" y="12mm" /><rect fill="rgb(225,112,75)" height="3mm" width="3mm" x="57mm" y="15mm" /><rect fill="rgb(119,59,39)" height="3mm" width="3mm" x="57mm" y="18mm" /><rect fill="rgb(179,89,59)" height="3mm" width="3mm" x="57mm" y="21mm" /><rect fill="rgb(87,43,29)" height="3mm" width="3mm" x="57mm" y="24mm" /><rect fill="rgb(186,93,62)" height="3mm" width="3mm" x="57mm" y="27mm" /><rect fill="rgb(6,3,2)" height="3mm" width="3mm" x="57mm" y="30mm" /><rect fill="rgb(119,59,39)" height="3mm" width="3mm" x="57mm" y="33mm" /><rect fill="rgb(113,56,37)" height="3mm" width="3mm" x="57mm" y="36mm" /><rect fill="rgb(146,73,48)" height="3mm" width="3mm" x="57mm" y="39mm" /><rect fill="rgb(181,90,60)" height="3mm" width="3mm" x="57mm" y="42mm" /><rect fill="rgb(186,93,62)" height="3mm" width="3mm" x="57mm" y="45mm" /><rect fill="rgb(87,43,29)" height="3mm" width="3mm" x="57mm" y="48mm" /><rect fill="rgb(234,117,78)" height="3mm" width="3mm" x="57mm" y="51mm" /><rect fill="rgb(36,18,12)" height="3mm" width="3mm" x="57mm" y="54mm" /><rect fill="rgb(140,70,46)" height="3mm" width="3mm" x="57mm" y="57mm" /><rect fill="rgb(190,95,63)" height="3mm" width="3mm" x="57mm" y="60mm" /><rect fill="rgb(211,105,70)" height="3mm" width="3mm" x="57mm" y="63mm" /><rect fill="rgb(39,19,13)" height="3mm" width="3mm" x="57mm" y="66mm" /><rect fill="rgb(149,74,49)" height="3mm" width="3mm" x="57mm" y="69mm" /><rect fill="rgb(221,110,73)" height="3mm" width="3mm" x="57mm" y="72mm" /><rect fill="rgb(225,112,75)" height="3mm" width="3mm" x="60mm" y="0mm" /><rect fill="rgb(162,81,54)" height="3mm" width="3mm" x="60mm" y="3mm" /><rect fill="rgb(2,1,0)" height="3mm" width="3mm" x="60mm" y="6mm" /><rect fill="rgb(168,84,56)" height="3mm" width="3mm" x="60mm" y="9mm" /><rect fill="rgb(249,124,83)" height="3mm" width="3mm" x="60mm" y="12mm" /><rect fill="rgb(128,64,42)" height="3mm" width="3mm" x="60mm" y="15mm" /><rect fill="rgb(212,106,70)" height="3mm" width="3mm" x="60mm" y="18mm" /><rect fill="rgb(91,45,30)" height="3mm" width="3mm" x="60mm" y="21mm" /><rect fill="rgb(96,48,32)" height="3mm" width="3mm" x="60mm" y="24mm" /><rect fill="rgb(145,72,48)" height="3mm" width="3mm" x="60mm" y="27mm" /><rect fill="rgb(251,125,83)" height="3mm" width="3mm" x="60mm" y="30mm" /><rect fill="rgb(48,24,16)" height="3mm" width="3mm" x="60mm" y="33mm" /><rect fill="rgb(131,65,43)" height="3mm" width="3mm" x="60mm" y="36mm" /><rect fill="rgb(20,10,6)" height="3mm" width="3mm" x="60mm" y="39mm" /><rect fill="rgb(14,7,4)" height="3mm" width="3mm" x="60mm" y="42mm" /><rect fill="rgb(12,6,4)" height="3mm" width="3mm" x="60mm" y="45mm" /><rect fill="rgb(219,109,73)" height="3mm" width="3mm" x="60mm" y="48mm" /><rect fill="rgb(71,35,23)" height="3mm" width="3mm" x="60mm" y="51mm" /><rect fill="rgb(174,87,58)" height="3mm" width="3mm" x="60mm" y="54mm" /><rect fill="rgb(213,106,71)" height="3mm" width="3mm" x="60mm" y="57mm" /><rect fill="rgb(68,34,22)" height="3mm" width="3mm" x="60mm" y="60mm" /><rect fill="rgb(16,8,5)" height="3mm" width="3mm" x="60mm" y="63mm" /><rect fill="rgb(82,41,27)" height="3mm" width="3mm" x="60mm" y="66mm" /><rect fill="rgb(52,26,17)" height="3mm" width="3mm" x="60mm" y="69mm" /><rect fill="rgb(205,102,68)" height="3mm" width="3mm" x="60mm" y="72mm" /><rect fill="rgb(210,105,70)" height="3mm" width="3mm" x="63mm" y="0mm" /><rect fill="rgb(117,58,39)" height="3mm" width="3mm" x="63mm" y="3mm" /><rect fill="rgb(87,43,29)" height="3mm" width="3mm" x="63mm" y="6mm" /><rect fill="rgb(32,16,10)" height="3mm" width="3mm" x="63mm" y="9mm" /><rect fill="rgb(86,43,28)" height="3mm" width="3mm" x="63mm" y="12mm" /><rect fill="rgb(96,48,32)" height="3mm" width="3mm" x="63mm" y="15mm" /><rect fill="rgb(214,107,71)" height="3mm" width="3mm" x="63mm" y="18mm" /><rect fill="rgb(58,29,19)" height="3mm" width="3mm" x="63mm" y="21mm" /><rect fill="rgb(144,72,48)" height="3mm" width="3mm" x="63mm" y="24mm" /><rect fill="rgb(124,62,41)" height="3mm" width="3mm" x="63mm" y="27mm" /><rect fill="rgb(102,51,34)" height="3mm" width="3mm" x="63mm" y="30mm" /><rect fill="rgb(209,104,69)" height="3mm" width="3mm" x="63mm" y="33mm" /><rect fill="rgb(205,102,68)" height="3mm" width="3mm" x="63mm" y="36mm" /><rect fill="rgb(69,34,23)" height="3mm" width="3mm" x="63mm" y="39mm" /><rect fill="rgb(169,84,56)" height="3mm" width="3mm" x="63mm" y="42mm" /><rect fill="rgb(64,32,21)" height="3mm" width="3mm" x="63mm" y="45mm" /><rect fill="rgb(241,120,80)" height="3mm" width="3mm" x="63mm" y="48mm" /><rect fill="rgb(133,66,44)" height="3mm" width="3mm" x="63mm" y="51mm" /><rect fill="rgb(61,30,20)" height="3mm" width="3mm" x="63mm" y="54mm" /><rect fill="rgb(4,2,1)" height="3mm" width="3mm" x="63mm" y="57mm" /><rect fill="rgb(89,44,29)" height="3mm" width="3mm" x="63mm" y="60mm" /><rect fill="rgb(102,51,34)" height="3mm" width="3mm" x="63mm" y="63mm" /><rect fill="rgb(196,98,65)" height="3mm" width="3mm" x="63mm" y="66mm" /><rect fill="rgb(82,41,27)" height="3mm" width="3mm" x="63mm" y="69mm" /><rect fill="rgb(210,105,70)" height="3mm" width="3mm" x="63mm" y="72mm" /><rect fill="rgb(24,12,8)" height="3mm" width="3mm" x="66mm" y="0mm" /><rect fill="rgb(234,117,78)" height="3mm" width="3mm" x="66mm" y="3mm" /><rect fill="rgb(241,120,80)" height="3mm" width="3mm" x="66mm" y="6mm" /><rect fill="rgb(181,90,60)" height="3mm" width="3mm" x="66mm" y="9mm" /><rect fill="rgb(27,13,9)" height="3mm" width="3mm" x="66mm" y="12mm" /><rect fill="rgb(86,43,28)" height="3mm" width="3mm" x="66mm" y="15mm" /><rect fill="rgb(203,101,67)" height="3mm" width="3mm" x="66mm" y="18mm" /><rect fill="rgb(191,95,63)" height="3mm" width="3mm" x="66mm" y="21mm" /><rect fill="rgb(97,48,32)" height="3mm" width="3mm" x="66mm" y="24mm" /><rect fill="rgb(253,126,84)" height="3mm" width="3mm" x="66mm" y="27mm" /><rect fill="rgb(21,10,7)" height="3mm" width="3mm" x="66mm" y="30mm" /><rect fill="rgb(224,112,74)" height="3mm" width="3mm" x="66mm" y="33mm" /><rect fill="rgb(95,47,31)" height="3mm" width="3mm" x="66mm" y="36mm" /><rect fill="rgb(47,23,15)" height="3mm" width="3mm" x="66mm" y="39mm" /><rect fill="rgb(35,17,11)" height="3mm" width="3mm" x="66mm" y="42mm" /><rect fill="rgb(2,1,0)" height="3mm" width="3mm" x="66mm" y="45mm" /><rect fill="rgb(109,54,36)" height="3mm" width="3mm" x="66mm" y="48mm" /><rect fill="rgb(215,107,71)" height="3mm" width="3mm" x="66mm" y="51mm" /><rect fill="rgb(28,14,9)" height="3mm" width="3mm" x="66mm" y="54mm" /><rect fill="rgb(5,2,1)" height="3mm" width="3mm" x="66mm" y="57mm" /><rect fill="rgb(227,113,75)" height="3mm" width="3mm" x="66mm" y="60mm" /><rect fill="rgb(65,32,21)" height="3mm" width="3mm" x="66mm" y="63mm" /><rect fill="rgb(75,37,25)" height="3mm" width="3mm" x="66mm" y="66mm" /><rect fill="rgb(205,102,68)" height="3mm" width="3mm" x="66mm" y="69mm" /><rect fill="rgb(20,10,6)" height="3mm" width="3mm" x="66mm" y="72mm" /><rect fill="rgb(129,64,43)" height="3mm" width="3mm" x="69mm" y="0mm" /><rect fill="rgb(4,2,1)" height="3mm" width="3mm" x="69mm" y="3mm" /><rect fill="rgb(226,113,75)" height="3mm" width="3mm" x="69mm" y="6mm" /><rect fill="rgb(18,9,6)" height="3mm" width="3mm" x="69mm" y="9mm" /><rect fill="rgb(61,30,20)" height="3mm" width="3mm" x="69mm" y="12mm" /><rect fill="rgb(116,58,38)" height="3mm" width="3mm" x="69mm" y="15mm" /><rect fill="rgb(77,38,25)" height="3mm" width="3mm" x="69mm" y="18mm" /><rect fill="rgb(146,73,48)" height="3mm" width="3mm" x="69mm" y="21mm" /><rect fill="rgb(36,18,12)" height="3mm" width="3mm" x="69mm" y="24mm" /><rect fill="rgb(215,107,71)" height="3mm" width="3mm" x="69mm" y="27mm" /><rect fill="rgb(28,14,9)" height="3mm" width="3mm" x="69mm" y="30mm" /><rect fill="rgb(74,37,24)" height="3mm" width="3mm" x="69mm" y="33mm" /><rect fill="rgb(3,1,1)" height="3mm" width="3mm" x="69mm" y="36mm" /><rect fill="rgb(38,19,12)" height="3mm" width="3mm" x="69mm" y="39mm" /><rect fill="rgb(92,46,30)" height="3mm" width="3mm" x="69mm" y="42mm" /><rect fill="rgb(222,111,74)" height="3mm" width="3mm" x="69mm" y="45mm" /><rect fill="rgb(196,98,65)" height="3mm" width="3mm" x="69mm" y="48mm" /><rect fill="rgb(81,40,27)" height="3mm" width="3mm" x="69mm" y="51mm" /><rect fill="rgb(132,66,44)" height="3mm" width="3mm" x="69mm" y="54mm" /><rect fill="rgb(5,2,1)" height="3mm" width="3mm" x="69mm" y="57mm" /><rect fill="rgb(153,76,51)" height="3mm" width="3mm" x="69mm" y="60mm" /><rect fill="rgb(147,73,49)" height="3mm" width="3mm" x="69mm" y="63mm" /><rect fill="rgb(41,20,13)" height="3mm" width="3mm" x="69mm" y="66mm" /><rect fill="rgb(88,44,29)" height="3mm" width="3mm" x="69mm" y="69mm" /><rect fill="rgb(202,101,67)" height="3mm" width="3mm" x="69mm" y="72mm" /><rect fill="rgb(227,113,75)" height="3mm" width="3mm" x="72mm" y="0mm" /><rect fill="rgb(23,11,7)" height="3mm" width="3mm" x="72mm" y="3mm" /><rect fill="rgb(59,29,19)" height="3mm" width="3mm" x="72mm" y="6mm" /><rect fill="rgb(89,44,29)" height="3mm" width="3mm" x="72mm" y="9mm" /><rect fill="rgb(19,9,6)" height="3mm" width="3mm" x="72mm" y="12mm" /><rect fill="rgb(73,36,24)" height="3mm" width="3mm" x="72mm" y="15mm" /><rect fill="rgb(212,106,70)" height="3mm" width="3mm" x="72mm" y="18mm" /><rect fill="rgb(142,71,47)" height="3mm" width="3mm" x="72mm" y="21mm" /><rect fill="rgb(180,90,60)" height="3mm" width="3mm" x="72mm" y="24mm" /><rect fill="rgb(202,101,67)" height="3mm" width="3mm" x="72mm" y="27mm" /><rect fill="rgb(166,83,55)" height="3mm" width="3mm" x="72mm" y="30mm" /><rect fill="rgb(165,82,55)" height="3mm" width="3mm" x="72mm" y="33mm" /><rect fill="rgb(121,60,40)" height="3mm" width="3mm" x="72mm" y="36mm" /><rect fill="rgb(156,78,52)" height="3mm" width="3mm" x="72mm" y="39mm" /><rect fill="rgb(144,72,48)" height="3mm" width="3mm" x="72mm" y="42mm" /><rect fill="rgb(28,14,9)" height="3mm" width="3mm" x="72mm" y="45mm" /><rect fill="rgb(236,118,78)" height="3mm" width="3mm" x="72mm" y="48mm" /><rect fill="rgb(212,106,70)" height="3mm" width="3mm" x="72mm" y="51mm" /><rect fill="rgb(249,124,83)" height="3mm" width="3mm" x="72mm" y="54mm" /><rect fill="rgb(13,6,4)" height="3mm" width="3mm" x="72mm" y="57mm" /><rect fill="rgb(53,26,17)" height="3mm" width="3mm" x="72mm" y="60mm" /><rect fill="rgb(138,69,46)" height="3mm" width="3mm" x="72mm" y="63mm" /><rect fill="rgb(56,28,18)" height="3mm" width="3mm" x="72mm" y="66mm" /><rect fill="rgb(167,83,55)" height="3mm" width="3mm" x="72mm" y="69mm" /><rect fill="rgb(95,47,31)" height="3mm" width="3mm" x="72mm" y="72mm" /></g></svg>