<?xml version="1.0" encoding="utf-8" ?>
<svg baseProfile="full" height="100%" version="1.1" width="100%" xmlns="http://www.w3.org/2000/svg" xmlns:ev="http://www.w3.org/2001/xml-events" xmlns:xlink="http://www.w3.org/1999/xlink"><defs /><g id="hlines" stroke="green"><line x1="2cm" x2="62cm" y1="2cm" y2="2cm" /><line x1="2cm" x2="62cm" y1="3cm" y2="3cm" /><line x1="2cm" x2="62cm" y1="4cm" y2="4cm" /><line x1="2cm" x2="62cm" y1="5cm" y2="5cm" /><line x1="2cm" x2="62cm" y1="6cm" y2="6cm" /><line x1="2cm" x2="62cm" y1="7cm" y2="7cm" /><line x1="2cm" x2="62cm" y1="8cm" y2="8cm" /><line x1="2cm" x2="62cm" y1="9cm" y2="9cm" /><line x1="2cm" x2="62cm" y1="10cm" y2="10cm" /><line x1="2cm" x2="62cm" y1="11cm" y2="11cm" /><line x1="2cm" x2="62cm" y1="12cm" y2="12cm" /><line x1="2cm" x2="62cm" y1="13cm" y2="13cm" /><line x1="2cm" x2="62cm" y1="14cm" y2="14cm" /><line x1="2cm" x2="62cm" y1="15cm" y2="15cm" /><line x1="2cm" x2="62cm" y1="16cm" y2="16cm" /><line x1="2cm" x2="62cm" y1="17cm" y2="17cm" /><line x1="2cm" x2="62cm" y1="18cm" y2="18cm" /><line x1="2cm" x2="62cm" y1="19cm" y2="19cm" /><line x1="2cm" x2="62cm" y1="20cm" y2="20cm" /><line x1="2cm" x2="62cm" y1="21cm" y2="21cm" /><line x1="2cm" x2="62cm" y1="22cm" y2="22cm" /><line x1="2cm" x2="62cm" y1="23cm" y2="23cm" /><line x1="2cm" x2="62cm" y1="24cm" y2="24cm" /><line x1="2cm" x2="62cm" y1="25cm" y2="25cm" /><line x1="2cm" x2="62cm" y1="26cm" y2="26cm" /><line x1="2cm" x2="62cm" y1="27cm" y2="27cm" /><line x1="2cm" x2="62cm" y1="28cm" y2="28cm" /><line x1="2cm" x2="62cm" y1="29cm" y2="29cm" /><line x1="2cm" x2="62cm" y1="30cm" y2="30cm" /><line x1="2cm" x2="62cm" y1="31cm" y2="31cm" /><line x1="2cm" x2="62cm" y1="32cm" y2="32cm" /><line x1="2cm" x2="62cm" y1="33cm" y2="33cm" /><line x1="2cm" x2="62cm" y1="34cm" y2="34cm" /><line x1="2cm" x2="62cm" y1="35cm" y2="35cm" /><line x1="2cm" x2="62cm" y1="36cm" y2="36cm" /><line x1="2cm" x2="62cm" y1="37cm" y2="37cm" /><line x1="2cm" x2="62cm" y1="38cm" y2="38cm" /><line x1="2cm" x2="62cm" y1="39cm" y2="39cm" /><line x1="2cm" x2="62cm" y1="40cm" y2="40cm" /><line x1="2cm" x2="62cm" y1="41cm" y2="41cm" /><line x1="2cm" x2="62cm" y1="42cm" y2="42cm" /><line x1="2cm" x2="62cm" y1="43cm" y2="43cm" /><line x1="2cm" x2="62cm" y1="44cm" y2="44cm" /><line x1="2cm" x2="62cm" y1="45cm" y2="45cm" /><line x1="2cm" x2="62cm" y1="46cm" y2="46cm" /><line x1="2cm" x2="62cm" y1="47cm" y2="47cm" /><line x1="2cm" x2="62cm" y1="48cm" y2="48cm" /><line x1="2cm" x2="62cm" y1="49cm" y2="49cm" /><line x1="2cm" x2="62cm" y1="50cm" y2="50cm" /><line x1="2cm" x2="62cm" y1="51cm" y2="51cm" /><line x1="2cm" x2="62cm" y1="52cm" y2="52cm" /><line x1="2cm" x2="62cm" y1="53cm" y2="53cm" /><line x1="2cm" x2="62cm" y1="54cm" y2="54cm" /><line x1="2cm" x2="62cm" y1="55cm" y2="55cm" /><line x1="2cm" x2="62cm" y1="56cm" y2="56cm" /><line x1="2cm" x2="62cm" y1="57cm" y2="57cm" /><line x1="2cm" x2="62cm" y1="58cm" y2="58cm" /><line x1="2cm" x2="62cm" y1="59cm" y2="59cm" /><line x1="2cm" x2="62cm" y1="60cm" y2="60cm" /><line x1="2cm" x2="62cm" y1="61cm" y2="61cm" /><line x1="2cm" x2="62cm" y1="62cm" y2="62cm" /><line x1="2cm" x2="62cm" y1="63cm" y2="63cm" /></g><g id="vline" stroke="blue"><line x1="2cm" x2="2cm" y1="2cm" y2="62cm" /><line x1="3cm" x2="3cm" y1="2cm" y2="62cm" /><line x1="4cm" x2="4cm" y1="2cm" y2="62cm" /><line x1="5cm" x2="5cm" y1="2cm" y2="62cm" /><line x1="6cm" x2="6cm" y1="2cm" y2="62cm" /><line x1="7cm" x2="7cm" y1="2cm" y2="62cm" /><line x1="8cm" x2="8cm" y1="2cm" y2="62cm" /><line x1="9cm" x2="9cm" y1="2cm" y2="62cm" /><line x1="10cm" x2="10cm" y1="2cm" y2="62cm" /><line x1="11cm" x2="11cm" y1="2cm" y2="62cm" /><line x1="12cm" x2="12cm" y1="2cm" y2="62cm" /><line x1="13cm" x2="13cm" y1="2cm" y2="62cm" /><line x1="14cm" x2="14cm" y1="2cm" y2="62cm" /><line x1="15cm" x2="15cm" y1="2cm" y2="62cm" /><line x1="16cm" x2="16cm" y1="2cm" y2="62cm" /><line x1="17cm" x2="17cm" y1="2cm" y2="62cm" /><line x1="18cm" x2="18cm" y1="2cm" y2="62cm" /><line x1="19cm" x2="19cm" y1="2cm" y2="62cm" /><line x1="20cm" x2="20cm" y1="2cm" y2="62cm" /><line x1="21cm" x2="21cm" y1="2cm" y2="62cm" /><line x1="22cm" x2="22cm" y1="2cm" y2="62cm" /><line x1="23cm" x2="23cm" y1="2cm" y2="62cm" /><line x1="24cm" x2="24cm" y1="2cm" y2="62cm" /><line x1="25cm" x2="25cm" y1="2cm" y2="62cm" /><line x1="26cm" x2="26cm" y1="2cm" y2="62cm" /><line x1="27cm" x2="27cm" y1="2cm" y2="62cm" /><line x1="28cm" x2="28cm" y1="2cm" y2="62cm" /><line x1="29cm" x2="29cm" y1="2cm" y2="62cm" /><line x1="30cm" x2="30cm" y1="2cm" y2="62cm" /><line x1="31cm" x2="31cm" y1="2cm" y2="62cm" /><line x1="32cm" x2="32cm" y1="2cm" y2="62cm" /><line x1="33cm" x2="33cm" y1="2cm" y2="62cm" /><line x1="34cm" x2="34cm" y1="2cm" y2="62cm" /><line x1="35cm" x2="35cm" y1="2cm" y2="62cm" /><line x1="36cm" x2="36cm" y1="2cm" y2="62cm" /><line x1="37cm" x2="37cm" y1="2cm" y2="62cm" /><line x1="38cm" x2="38cm" y1="2cm" y2="62cm" /><line x1="39cm" x2="39cm" y1="2cm" y2="62cm" /><line x1="40cm" x2="40cm" y1="2cm" y2="62cm" /><line x1="41cm" x2="41cm" y1="2cm" y2="62cm" /><line x1="42cm" x2="42cm" y1="2cm" y2="62cm" /><line x1="43cm" x2="43cm" y1="2cm" y2="62cm" /><line x1="44cm" x2="44cm" y1="2cm" y2="62cm" /><line x1="45cm" x2="45cm" y1="2cm" y2="62cm" /><line x1="46cm" x2="46cm" y1="2cm" y2="62cm" /><line x1="47cm" x2="47cm" y1="2cm" y2="62cm" /><line x1="48cm" x2="48cm" y1="2cm" y2="62cm" /><line x1="49cm" x2="49cm" y1="2cm" y2="62cm" /><line x1="50cm" x2="50cm" y1="2cm" y2="62cm" /><line x1="51cm" x2="51cm" y1="2cm" y2="62cm" /><line x1="52cm" x2="52cm" y1="2cm" y2="62cm" /><line x1="53cm" x2="53cm" y1="2cm" y2="62cm" /><line x1="54cm" x2="54cm" y1="2cm" y2="62cm" /><line x1="55cm" x2="55cm" y1="2cm" y2="62cm" /><line x1="56cm" x2="56cm" y1="2cm" y2="62cm" /><line x1="57cm" x2="57cm" y1="2cm" y2="62cm" /><line x1="58cm" x2="58cm" y1="2cm" y2="62cm" /><line x1="59cm" x2="59cm" y1="2cm" y2="62cm" /><line x1="60cm" x2="60cm" y1="2cm" y2="62cm" /><line x1="61cm" x2="61cm" y1="2cm" y2="62cm" /><line x1="62cm" x2="62cm" y1="2cm" y2="62cm" /><line x1="63cm" x2="63cm" y1="2cm" y2="62cm" /></g><g id="shapes"><circle cx="31.0cm" cy="31.0cm" fill="red" fill-opacity="0" r="0cm" stroke="rgb(222,36,35)" stroke-width="2cm" /><circle cx="31.0cm" cy="31.0cm" fill="red" fill-opacity="0" r="1cm" stroke="rgb(89,186,121)" stroke-width="2cm" /><circle cx="31.0cm" cy="31.0cm" fill="red" fill-opacity="0" r="2cm" stroke="rgb(64,218,72)" stroke-width="2cm" /><circle cx="31.0cm" cy="31.0cm" fill="red" fill-opacity="0" r="3cm" stroke="rgb(43,19,21)" stroke-width="2cm" /><circle cx="31.0cm" cy="31.0cm" fill="red" fill-opacity="0" r="4cm" stroke="rgb(142,158,238)" stroke-width="2cm" /><circle cx="31.0cm" cy="31.0cm" fill="red" fill-opacity="0" r="5cm" stroke="rgb(26,23,35)" stroke-width="2cm" /><circle cx="31.0cm" cy="31.0cm" fill="red" fill-opacity="0" r="6cm" stroke="rgb(60,159,151)" stroke-width="2cm" /><circle cx="31.0cm" cy="31.0cm" fill="red" fill-opacity="0" r="7cm" stroke="rgb(166,5,129)" stroke-width="2cm" /><circle cx="31.0cm" cy="31.0cm" fill="red" fill-opacity="0" r="8cm" stroke="rgb(216,205,164)" stroke-width="2cm" /><circle cx="31.0cm" cy="31.0cm" fill="red" fill-opacity="0" r="9cm" stroke="rgb(229,145,188)" stroke-width="2cm" /><circle cx="31.0cm" cy="31.0cm" fill="red" fill-opacity="0" r="10cm" stroke="rgb(35,128,143)" stroke-width="2cm" /><circle cx="31.0cm" cy="31.0cm" fill="red" fill-opacity="0" r="11cm" stroke="rgb(123,143,194)" stroke-width="2cm" /><circle cx="31.0cm" cy="31.0cm" fill="red" fill-opacity="0" r="12cm" stroke="rgb(253,94,210)" stroke-width="2cm" /><circle cx="31.0cm" cy="31.0cm" fill="red" fill-opacity="0" r="13cm" stroke="rgb(86,103,130)" stroke-width="2cm" /><circle cx="31.0cm" cy="31.0cm" fill="red" fill-opacity="0" r="14cm" stroke="rgb(96,200,217)" stroke-width="2cm" /><circle cx="31.0cm" cy="31.0cm" fill="red" fill-opacity="0" r="15cm" stroke="rgb(198,168,104)" stroke-width="2cm" /><circle cx="31.0cm" cy="31.0cm" fill="red" fill-opacity="0" r="16cm" stroke="rgb(152,11,96)" stroke-width="2cm" /><circle cx="31.0cm" cy="31.0cm" fill="red" fill-opacity="0" r="17cm" stroke="rgb(192,110,144)" stroke-width="2cm" /><circle cx="31.0cm" cy="31.0cm" fill="red" fill-opacity="0" r="18cm" stroke="rgb(16,229,118)" stroke-width="2cm" /><circle cx="31.0cm" cy="31.0cm" fill="red" fill-opacity="0" r="19cm" stroke="rgb(201,83,97)" stroke-width="2cm" /><circle cx="31.0cm" cy="31.0cm" fill="red" fill-opacity="0" r="20cm" stroke="rgb(153,140,71)" stroke-width="2cm" /><circle cx="31.0cm" cy="31.0cm" fill="red" fill-opacity="0" r="21cm" stroke="rgb(49,64,136)" stroke-width="2cm" /><circle cx="31.0cm" cy="31.0cm" fill="red" fill-opacity="0" r="22cm" stroke="rgb(0,22,120)" stroke-width="2cm" /><circle cx="31.0cm" cy="31.0cm" fill="red" fill-opacity="0" r="23cm" stroke="rgb(57,245,142)" stroke-width="2cm" /><circle cx="31.0cm" cy="31.0cm" fill="red" fill-opacity="0" r="24cm" stroke="rgb(192,102,92)" stroke-width="2cm" /><circle cx="31.0cm" cy="31.0cm" fill="red" fill-opacity="0" r="25cm" stroke="rgb(200,170,197)" stroke-width="2cm" /></g></svg>